<svg xmlns="http://www.w3.org/2000/svg" version="1.1" width="801" height="513" viewBox="0 0 801 513" font-family="serif">
<rect width="801" height="513" fill="#5d8fa8"/>
<text x="400" y="36" text-anchor="middle" font-size="24" fill="#fdf7e8" font-weight="bold">ZiZhou 紫洲</text>
<text x="400" y="60" text-anchor="middle" font-size="13" fill="#e8dcc4">Continente de FengShan · elemento fogo · Qi 7/10 · perigo 2/10 · 7 sítios</text>
<polygon points="235.30,159.68 235.30,244.32 162.00,286.64 88.70,244.32 88.70,159.68 162.00,117.36" fill="#2a241c" opacity="0.72" stroke="#a83a26" stroke-width="3"/>
<text x="162.0" y="196.0" text-anchor="middle" font-size="24" fill="#e24b3a">⌂</text>
<text x="162.0" y="218.0" text-anchor="middle" font-size="12" fill="#fdf7e8" font-weight="bold">WuShan</text>
<text x="162.0" y="233.0" text-anchor="middle" font-size="10" fill="#d8cbb0">nível 7 · perigo 6 · Qi 4</text>
<text x="162.0" y="246.0" text-anchor="middle" font-size="10" fill="#c0b49a">ruina</text>
<title>WuShan — A fonte de Qi local está morrendo e será estéril em uma década.</title>
<polygon points="405.50,159.68 405.50,244.32 332.20,286.64 258.90,244.32 258.90,159.68 332.20,117.36" fill="#2a241c" opacity="0.72" stroke="#a83a26" stroke-width="3"/>
<text x="332.2" y="196.0" text-anchor="middle" font-size="24" fill="#ffe9a8">☯</text>
<text x="332.2" y="218.0" text-anchor="middle" font-size="12" fill="#fdf7e8" font-weight="bold">HuaDian</text>
<text x="332.2" y="233.0" text-anchor="middle" font-size="10" fill="#d8cbb0">nível 6 · perigo 7 · Qi 8</text>
<text x="332.2" y="246.0" text-anchor="middle" font-size="10" fill="#c0b49a">seita ortodoxa</text>
<text x="332.2" y="259.0" text-anchor="middle" font-size="9" fill="#a89878">Seita SongBang de ZiZhou</text>
<title>HuaDian — Metade das pedras espirituais do cofre são falsas.</title>
<polygon points="575.70,159.68 575.70,244.32 502.40,286.64 429.10,244.32 429.10,159.68 502.40,117.36" fill="#2a241c" opacity="0.72" stroke="#a83a26" stroke-width="3"/>
<text x="502.4" y="196.0" text-anchor="middle" font-size="24" fill="#ffe9a8">≋</text>
<text x="502.4" y="218.0" text-anchor="middle" font-size="12" fill="#fdf7e8" font-weight="bold">LanJing</text>
<text x="502.4" y="233.0" text-anchor="middle" font-size="10" fill="#d8cbb0">nível 5 · perigo 3 · Qi 9</text>
<text x="502.4" y="246.0" text-anchor="middle" font-size="10" fill="#c0b49a">veia espiritual</text>
<title>LanJing — O poço da vila envenena devagar quem bebe por mais de um ano.</title>
<polygon points="745.90,159.68 745.90,244.32 672.60,286.64 599.30,244.32 599.30,159.68 672.60,117.36" fill="#2a241c" opacity="0.72" stroke="#a83a26" stroke-width="3"/>
<text x="672.6" y="196.0" text-anchor="middle" font-size="24" fill="#ffe9a8">▪</text>
<text x="672.6" y="218.0" text-anchor="middle" font-size="12" fill="#fdf7e8" font-weight="bold">LanLin</text>
<text x="672.6" y="233.0" text-anchor="middle" font-size="10" fill="#d8cbb0">nível 3 · perigo 1 · Qi 3</text>
<text x="672.6" y="246.0" text-anchor="middle" font-size="10" fill="#c0b49a">vila</text>
<title>LanLin — O mapa local está errado: uma montanha inteira foi omitida.</title>
<polygon points="235.30,316.08 235.30,400.72 162.00,443.04 88.70,400.72 88.70,316.08 162.00,273.76" fill="#2a241c" opacity="0.72" stroke="#a83a26" stroke-width="3"/>
<text x="162.0" y="352.4" text-anchor="middle" font-size="24" fill="#ffe9a8">⚓</text>
<text x="162.0" y="374.4" text-anchor="middle" font-size="12" fill="#fdf7e8" font-weight="bold">MoDu</text>
<text x="162.0" y="389.4" text-anchor="middle" font-size="10" fill="#d8cbb0">nível 3 · perigo 1 · Qi 4</text>
<text x="162.0" y="402.4" text-anchor="middle" font-size="10" fill="#c0b49a">porto</text>
<title>MoDu — Alguém daqui vende informações para uma facção inimiga.</title>
<polygon points="405.50,316.08 405.50,400.72 332.20,443.04 258.90,400.72 258.90,316.08 332.20,273.76" fill="#2a241c" opacity="0.72" stroke="#a83a26" stroke-width="3"/>
<text x="332.2" y="352.4" text-anchor="middle" font-size="24" fill="#ffe9a8">▪</text>
<text x="332.2" y="374.4" text-anchor="middle" font-size="12" fill="#fdf7e8" font-weight="bold">ZiQuan</text>
<text x="332.2" y="389.4" text-anchor="middle" font-size="10" fill="#d8cbb0">nível 3 · perigo 1 · Qi 6</text>
<text x="332.2" y="402.4" text-anchor="middle" font-size="10" fill="#c0b49a">vila</text>
<title>ZiQuan — Uma criança da vila nasceu com raiz de um único elemento e ninguém sabe.</title>
<polygon points="575.70,316.08 575.70,400.72 502.40,443.04 429.10,400.72 429.10,316.08 502.40,273.76" fill="#2a241c" opacity="0.72" stroke="#a83a26" stroke-width="3"/>
<text x="502.4" y="352.4" text-anchor="middle" font-size="24" fill="#ffe9a8">▪</text>
<text x="502.4" y="374.4" text-anchor="middle" font-size="12" fill="#fdf7e8" font-weight="bold">HuangShan</text>
<text x="502.4" y="389.4" text-anchor="middle" font-size="10" fill="#d8cbb0">nível 2 · perigo 1 · Qi 5</text>
<text x="502.4" y="402.4" text-anchor="middle" font-size="10" fill="#c0b49a">vila</text>
<title>HuangShan — Há um corpo preservado no subsolo que respira uma vez por mês.</title>
</svg>