<svg xmlns="http://www.w3.org/2000/svg" version="1.1" width="631" height="513" viewBox="0 0 631 513" font-family="serif">
<rect width="631" height="513" fill="#7d8a52"/>
<text x="315" y="36" text-anchor="middle" font-size="24" fill="#fdf7e8" font-weight="bold">XingJiang 星江</text>
<text x="315" y="60" text-anchor="middle" font-size="13" fill="#e8dcc4">Continente de BaiKu · elemento metal · Qi 7/10 · perigo 7/10 · 6 sítios</text>
<polygon points="235.30,159.68 235.30,244.32 162.00,286.64 88.70,244.32 88.70,159.68 162.00,117.36" fill="#2a241c" opacity="0.72" stroke="#8f9aa6" stroke-width="3"/>
<text x="162.0" y="196.0" text-anchor="middle" font-size="24" fill="#ffe9a8">▲</text>
<text x="162.0" y="218.0" text-anchor="middle" font-size="12" fill="#fdf7e8" font-weight="bold">ShuiJiang</text>
<text x="162.0" y="233.0" text-anchor="middle" font-size="10" fill="#d8cbb0">nível 10 · perigo 10 · Qi 8</text>
<text x="162.0" y="246.0" text-anchor="middle" font-size="10" fill="#c0b49a">pico de cultivo</text>
<title>ShuiJiang — Nada. O lugar é exatamente o que parece — e isso é o mais raro de tudo.</title>
<polygon points="405.50,159.68 405.50,244.32 332.20,286.64 258.90,244.32 258.90,159.68 332.20,117.36" fill="#2a241c" opacity="0.72" stroke="#8f9aa6" stroke-width="3"/>
<text x="332.2" y="196.0" text-anchor="middle" font-size="24" fill="#e24b3a">⚔</text>
<text x="332.2" y="218.0" text-anchor="middle" font-size="12" fill="#fdf7e8" font-weight="bold">TaiKu</text>
<text x="332.2" y="233.0" text-anchor="middle" font-size="10" fill="#d8cbb0">nível 4 · perigo 8 · Qi 2</text>
<text x="332.2" y="246.0" text-anchor="middle" font-size="10" fill="#c0b49a">campo de batalha</text>
<title>TaiKu — Há um túnel selado que leva a um reino secreto menor.</title>
<polygon points="575.70,159.68 575.70,244.32 502.40,286.64 429.10,244.32 429.10,159.68 502.40,117.36" fill="#2a241c" opacity="0.72" stroke="#8f9aa6" stroke-width="3"/>
<text x="502.4" y="196.0" text-anchor="middle" font-size="24" fill="#ffe9a8">▪</text>
<text x="502.4" y="218.0" text-anchor="middle" font-size="12" fill="#fdf7e8" font-weight="bold">HongShan</text>
<text x="502.4" y="233.0" text-anchor="middle" font-size="10" fill="#d8cbb0">nível 3 · perigo 6 · Qi 5</text>
<text x="502.4" y="246.0" text-anchor="middle" font-size="10" fill="#c0b49a">vila</text>
<title>HongShan — As bestas da região estão fugindo de algo que ainda não chegou.</title>
<polygon points="235.30,316.08 235.30,400.72 162.00,443.04 88.70,400.72 88.70,316.08 162.00,273.76" fill="#2a241c" opacity="0.72" stroke="#8f9aa6" stroke-width="3"/>
<text x="162.0" y="352.4" text-anchor="middle" font-size="24" fill="#ffe9a8">▪</text>
<text x="162.0" y="374.4" text-anchor="middle" font-size="12" fill="#fdf7e8" font-weight="bold">JianHu</text>
<text x="162.0" y="389.4" text-anchor="middle" font-size="10" fill="#d8cbb0">nível 3 · perigo 6 · Qi 7</text>
<text x="162.0" y="402.4" text-anchor="middle" font-size="10" fill="#c0b49a">vila</text>
<title>JianHu — O poço da vila envenena devagar quem bebe por mais de um ano.</title>
<polygon points="405.50,316.08 405.50,400.72 332.20,443.04 258.90,400.72 258.90,316.08 332.20,273.76" fill="#2a241c" opacity="0.72" stroke="#8f9aa6" stroke-width="3"/>
<text x="332.2" y="352.4" text-anchor="middle" font-size="24" fill="#ffe9a8">▪</text>
<text x="332.2" y="374.4" text-anchor="middle" font-size="12" fill="#fdf7e8" font-weight="bold">LianLin</text>
<text x="332.2" y="389.4" text-anchor="middle" font-size="10" fill="#d8cbb0">nível 3 · perigo 4 · Qi 7</text>
<text x="332.2" y="402.4" text-anchor="middle" font-size="10" fill="#c0b49a">vila</text>
<title>LianLin — Um tributo anual é pago em segredo para evitar um ataque.</title>
<polygon points="575.70,316.08 575.70,400.72 502.40,443.04 429.10,400.72 429.10,316.08 502.40,273.76" fill="#2a241c" opacity="0.72" stroke="#8f9aa6" stroke-width="3"/>
<text x="502.4" y="352.4" text-anchor="middle" font-size="24" fill="#ffe9a8">⌃</text>
<text x="502.4" y="374.4" text-anchor="middle" font-size="12" fill="#fdf7e8" font-weight="bold">TaiLin</text>
<text x="502.4" y="389.4" text-anchor="middle" font-size="10" fill="#d8cbb0">nível 3 · perigo 10 · Qi 5</text>
<text x="502.4" y="402.4" text-anchor="middle" font-size="10" fill="#c0b49a">passo de montanha</text>
<title>TaiLin — O poço da vila envenena devagar quem bebe por mais de um ano.</title>
</svg>